# xmcd
#
# Track frame offsets:
#	150
#	15500
#	31047
#	43339
#	58322
#	71257
#	81804
#	99780
#	115187
#	129292
#
# Disc length: 1959 seconds
#
# Revision: 6
# Processed by: cddbd v1.5.2PL0 Copyright (c) Steve Scherf et al.
# Submitted via: EZCDAudioConverter 6.0.7.1
#
DISCID=7407a50a
DTITLE=Ty England
DYEAR=1995
DGENRE=Country
TTITLE0=Redneck Son
TTITLE1=Smoke In Her Eyes
TTITLE2=Should've Asked Her Faster
TTITLE3=Her Only Bad Habit Is Me
TTITLE4=You'll Find Somebody New
TTITLE5=A Swing Like That
TTITLE6=New Faces in the Fields
TTITLE7=The Blues Ain't News to Me
TTITLE8=It's Lonesome Everywhere
TTITLE9=Is That You
EXTD=
EXTT0=
EXTT1=
EXTT2=
EXTT3=
EXTT4=
EXTT5=
EXTT6=
EXTT7=
EXTT8=
EXTT9=
PLAYORDER=
